<?xml version="1.0" encoding="utf-8"?>
<!-- Generator: Adobe Illustrator 27.5.0, SVG Export Plug-In . SVG Version: 6.00 Build 0)  -->
<svg version="1.1" id="Layer_1" xmlns="http://www.w3.org/2000/svg" xmlns:xlink="http://www.w3.org/1999/xlink" x="0px" y="0px"
	 viewBox="0 0 841.89 595.28" style="enable-background:new 0 0 841.89 595.28;" xml:space="preserve">
<style type="text/css">
	.st0{fill:#FFFFFF;}
	.st1{font-family:'Copperplate-Light';}
	.st2{font-size:25.4479px;}
	.st3{font-family:'Copperplate';}
</style>
<g>
	<path class="st0" d="M378.15,384.07l-0.21-64.36c0-0.38,0.23-0.73,0.58-0.89l137.13-60.05c0.35-0.15,0.58-0.5,0.58-0.88v-61.56
		c0-0.38,0.23-0.73,0.58-0.88l24.33-10.48c0.96-0.41,0.67-1.85-0.38-1.85h-50.12c-0.53,0-0.96,0.43-0.96,0.96l-0.04,60.2
		c0,0.39-0.23,0.73-0.58,0.88l-109.72,46.97c-0.64,0.27-1.34-0.19-1.34-0.89V184.1c0-0.53-0.43-0.96-0.96-0.96h-50.13
		c-1.04,0-1.34,1.41-0.4,1.84l24.76,11.18c0.34,0.16,0.57,0.5,0.57,0.88v174.5c0,0.38-0.23,0.73-0.58,0.88l-24.56,10.78
		c-0.95,0.42-0.66,1.84,0.39,1.84h50.11C377.72,385.04,378.15,384.61,378.15,384.07z"/>
	<path class="st0" d="M420.16,210.09l-0.11,61.24c0,0.69,0.71,1.16,1.34,0.89l25.44-10.97c0.35-0.15,0.58-0.5,0.58-0.89l-0.13-50.28
		c0-0.53-0.43-0.96-0.96-0.96h-25.2C420.59,209.12,420.16,209.55,420.16,210.09z"/>
	<path class="st0" d="M420.16,356.35l0-53.17c0-0.38,0.23-0.73,0.58-0.88l47.06-20.31c0.24-0.1,0.52-0.11,0.76,0l46.02,19.73
		c0.35,0.15,0.58,0.5,0.58,0.89v68.69c0,0.38,0.23,0.73,0.58,0.88l25.42,11.02c0.96,0.42,0.66,1.85-0.38,1.85H490.6
		c-0.53,0-0.96-0.43-0.96-0.96l-0.02-63.63c0-0.38-0.23-0.73-0.58-0.88l-40.4-17.34c-0.63-0.27-1.34,0.19-1.34,0.88l-0.19,53
		c0,0.53-0.43,0.95-0.95,0.96l-25.01,0.23C420.6,357.31,420.16,356.88,420.16,356.35z"/>
</g>
<text transform="matrix(0.7251 0 0 1 323.5007 420.7831)"><tspan x="0" y="0" class="st0 st1 st2">HAYDN KERR  |  </tspan><tspan x="205.77" y="0" class="st0 st3 st2">DESIGN</tspan></text>
</svg>
